<svg width="687" height="254" viewBox="0 0 687 254" fill="none" xmlns="http://www.w3.org/2000/svg">
<path d="M-4 0H252.472H481.233H687C687 0 319.5 0 252.472 113.5C185.444 227 59.5 113.5 -4 253.5V0Z" fill="#BF613C"/>
<path d="M645.881 0.5C640.507 0.710841 634.697 0.965138 628.506 1.27441C592.996 3.04833 544.948 6.5959 494.802 13.6924C444.659 20.7884 392.399 31.4353 348.474 47.4131C304.57 63.383 268.89 84.7147 252.041 113.246C235.346 141.515 215.005 155.626 192.891 163.097C170.742 170.579 146.81 171.405 122.878 173.063C98.9772 174.72 75.0964 177.207 53.2148 188.075C31.7476 198.738 12.2512 217.444 -3.5 251.22V0.5H645.881Z" stroke="black" stroke-opacity="0.3"/>
<path d="M645.881 0.5C640.507 0.710841 634.697 0.965138 628.506 1.27441C592.996 3.04833 544.948 6.5959 494.802 13.6924C444.659 20.7884 392.399 31.4353 348.474 47.4131C304.57 63.383 268.89 84.7147 252.041 113.246C235.346 141.515 215.005 155.626 192.891 163.097C170.742 170.579 146.81 171.405 122.878 173.063C98.9772 174.72 75.0964 177.207 53.2148 188.075C31.7476 198.738 12.2512 217.444 -3.5 251.22V0.5H645.881Z" stroke="#DD872C" stroke-opacity="0.16"/>
</svg>
