<svg width="36" height="36" viewBox="0 0 36 36" fill="none" xmlns="http://www.w3.org/2000/svg">
<path d="M31.5 7.875H21C20.385 7.875 19.875 7.365 19.875 6.75C19.875 6.135 20.385 5.625 21 5.625H31.5C32.115 5.625 32.625 6.135 32.625 6.75C32.625 7.365 32.115 7.875 31.5 7.875Z" fill="currentColor"/>
<path d="M31.5 15.375H21C20.385 15.375 19.875 14.865 19.875 14.25C19.875 13.635 20.385 13.125 21 13.125H31.5C32.115 13.125 32.625 13.635 32.625 14.25C32.625 14.865 32.115 15.375 31.5 15.375Z" fill="currentColor"/>
<path d="M31.5 22.875H4.5C3.885 22.875 3.375 22.365 3.375 21.75C3.375 21.135 3.885 20.625 4.5 20.625H31.5C32.115 20.625 32.625 21.135 32.625 21.75C32.625 22.365 32.115 22.875 31.5 22.875Z" fill="currentColor"/>
<path d="M31.5 30.375H4.5C3.885 30.375 3.375 29.865 3.375 29.25C3.375 28.635 3.885 28.125 4.5 28.125H31.5C32.115 28.125 32.625 28.635 32.625 29.25C32.625 29.865 32.115 30.375 31.5 30.375Z" fill="currentColor"/>
<path d="M11.88 5.25H7.62C5.52 5.25 4.5 6.27 4.5 8.37V12.645C4.5 14.745 5.52 15.765 7.62 15.765H11.895C13.995 15.765 15.015 14.745 15.015 12.645V8.37C15 6.27 13.98 5.25 11.88 5.25Z" fill="currentColor"/>
</svg>
