<svg width="24" height="24" viewBox="0 0 24 24" fill="none" xmlns="http://www.w3.org/2000/svg">
<path d="M20 19.26H10.93C10.48 19.26 10.11 18.89 10.11 18.44C10.11 17.99 10.48 17.62 10.93 17.62H20C20.45 17.62 20.82 17.99 20.82 18.44C20.82 18.9 20.45 19.26 20 19.26Z" fill="currentColor"/>
<path d="M20 12.97H10.93C10.48 12.97 10.11 12.6 10.11 12.15C10.11 11.7 10.48 11.33 10.93 11.33H20C20.45 11.33 20.82 11.7 20.82 12.15C20.82 12.6 20.45 12.97 20 12.97Z" fill="currentColor"/>
<path d="M20 6.67003H10.93C10.48 6.67003 10.11 6.30003 10.11 5.85003C10.11 5.40003 10.48 5.03003 10.93 5.03003H20C20.45 5.03003 20.82 5.40003 20.82 5.85003C20.82 6.30003 20.45 6.67003 20 6.67003Z" fill="currentColor"/>
<path d="M4.90993 8.02992C4.68993 8.02992 4.47993 7.93992 4.32993 7.78992L3.41993 6.87992C3.09993 6.55992 3.09993 6.03992 3.41993 5.71992C3.73993 5.39992 4.25993 5.39992 4.57993 5.71992L4.90993 6.04992L7.04993 3.90992C7.36993 3.58992 7.88993 3.58992 8.20993 3.90992C8.52993 4.22992 8.52993 4.74992 8.20993 5.06992L5.48993 7.78992C5.32993 7.93992 5.12993 8.02992 4.90993 8.02992Z" fill="currentColor"/>
<path d="M4.90993 14.33C4.69993 14.33 4.48993 14.25 4.32993 14.09L3.41993 13.18C3.09993 12.86 3.09993 12.34 3.41993 12.02C3.73993 11.7 4.25993 11.7 4.57993 12.02L4.90993 12.35L7.04993 10.21C7.36993 9.88996 7.88993 9.88996 8.20993 10.21C8.52993 10.53 8.52993 11.05 8.20993 11.37L5.48993 14.09C5.32993 14.25 5.11993 14.33 4.90993 14.33Z" fill="currentColor"/>
<path d="M4.90993 20.33C4.69993 20.33 4.48993 20.25 4.32993 20.09L3.41993 19.18C3.09993 18.86 3.09993 18.34 3.41993 18.02C3.73993 17.7 4.25993 17.7 4.57993 18.02L4.90993 18.35L7.04993 16.21C7.36993 15.89 7.88993 15.89 8.20993 16.21C8.52993 16.53 8.52993 17.05 8.20993 17.37L5.48993 20.09C5.32993 20.25 5.11993 20.33 4.90993 20.33Z" fill="currentColor"/>
</svg>
