<svg width="38" height="36" viewBox="0 0 38 36" fill="none" xmlns="http://www.w3.org/2000/svg">
<path d="M34.8333 12.78V5.97C34.8333 3.855 33.82 3 31.3025 3H24.9058C22.3883 3 21.375 3.855 21.375 5.97V12.765C21.375 14.895 22.3883 15.735 24.9058 15.735H31.3025C33.82 15.75 34.8333 14.895 34.8333 12.78Z" fill="currentColor"/>
<path d="M34.8333 29.655V23.595C34.8333 21.21 33.82 20.25 31.3025 20.25H24.9058C22.3883 20.25 21.375 21.21 21.375 23.595V29.655C21.375 32.04 22.3883 33 24.9058 33H31.3025C33.82 33 34.8333 32.04 34.8333 29.655Z" fill="currentColor"/>
<path d="M16.625 12.78V5.97C16.625 3.855 15.6117 3 13.0942 3H6.6975C4.18 3 3.16666 3.855 3.16666 5.97V12.765C3.16666 14.895 4.18 15.735 6.6975 15.735H13.0942C15.6117 15.75 16.625 14.895 16.625 12.78Z" fill="currentColor"/>
<path d="M16.625 29.655V23.595C16.625 21.21 15.6117 20.25 13.0942 20.25H6.6975C4.18 20.25 3.16666 21.21 3.16666 23.595V29.655C3.16666 32.04 4.18 33 6.6975 33H13.0942C15.6117 33 16.625 32.04 16.625 29.655Z" fill="currentColor"/>
</svg>
